<!-- Generator: Adobe Illustrator 19.1.0, SVG Export Plug-In  -->
<svg version="1.1"
	 xmlns="http://www.w3.org/2000/svg" xmlns:xlink="http://www.w3.org/1999/xlink" xmlns:a="http://ns.adobe.com/AdobeSVGViewerExtensions/3.0/"
	 x="0px" y="0px" width="554.4px" height="143.8px" viewBox="0 0 554.4 143.8" style="enable-background:new 0 0 554.4 143.8;"
	 xml:space="preserve">
<style type="text/css">
	.st0{fill:none;}
	.st1{fill:#FFFFFF;stroke:#5A7785;stroke-miterlimit:10;}
	.st2{opacity:0.2;fill:#BF360C;enable-background:new    ;}
	.st3{opacity:0.2;fill:#263238;enable-background:new    ;}
	.st4{opacity:0.2;fill:#FFFFFF;enable-background:new    ;}
	.st5{fill:url(#XMLID_63_);}
	.st6{fill:url(#XMLID_64_);}
	.st7{fill:#F7F8F9;stroke:#5A7785;stroke-miterlimit:10;}
	.st8{opacity:0.2;fill:#1A237E;enable-background:new    ;}
	.st9{opacity:0.2;fill:#3E2723;enable-background:new    ;}
	.st10{fill:#FFFFFF;}
	.st11{fill:url(#XMLID_65_);}
	.st12{fill:url(#XMLID_66_);}
</style>
<defs>
</defs>
<g>
	<g id="XMLID_7_">
		<g id="XMLID_22_">
			<g id="XMLID_23_">
				<path id="XMLID_62_" class="st0" d="M79.3,61.9l-33.5-58H0.9l37,64l-37,64h44.9l33.5-58C81.4,70.2,81.4,65.6,79.3,61.9z"/>
				<polygon id="XMLID_61_" class="st1" points="60,106.1 49.4,87.7 23.9,131.9 45.7,131.9 60.3,106.6 				"/>
				<path id="XMLID_60_" class="st0" d="M79.3,61.9l-33.5-58H0.9l37,64l-37,64h44.9l33.5-58C81.4,70.2,81.4,65.6,79.3,61.9z"/>
				<polygon id="XMLID_59_" class="st1" points="37.9,67.9 49.4,87.7 23.9,131.9 0.9,131.9 				"/>
				<path id="XMLID_58_" class="st0" d="M79.3,61.9l-33.5-58H0.9l37,64l-37,64h44.9l33.5-58C81.4,70.2,81.4,65.6,79.3,61.9z"/>
				<polygon id="XMLID_57_" class="st2" points="45.7,130.9 24.4,130.9 23.9,131.9 45.7,131.9 60.3,106.6 60,106.1 				"/>
				<path id="XMLID_56_" class="st0" d="M79.3,61.9l-33.5-58H0.9l37,64l-37,64h44.9l33.5-58C81.4,70.2,81.4,65.6,79.3,61.9z"/>
				<polygon id="XMLID_55_" class="st3" points="1.4,130.9 0.9,131.9 23.9,131.9 24.4,130.9 				"/>
				<path id="XMLID_54_" class="st0" d="M79.3,61.9l-33.5-58H0.9l37,64l-37,64h44.9l33.5-58C81.4,70.2,81.4,65.6,79.3,61.9z"/>
				<polygon id="XMLID_53_" class="st4" points="0.9,131.9 1.4,131.9 38.2,68.4 37.9,67.9 				"/>
				<path id="XMLID_52_" class="st0" d="M79.3,61.9l-33.5-58H0.9l37,64l-37,64h44.9l33.5-58C81.4,70.2,81.4,65.6,79.3,61.9z"/>

					<radialGradient id="XMLID_63_" cx="60.1434" cy="3206.9492" r="44.2634" gradientTransform="matrix(1 0 0 -1 0 3313.1865)" gradientUnits="userSpaceOnUse">
					<stop  offset="0" style="stop-color:#BF360C;stop-opacity:0.2"/>
					<stop  offset="1" style="stop-color:#BF360C;stop-opacity:2.000000e-02"/>
				</radialGradient>
				<polygon id="XMLID_51_" class="st5" points="60.3,106.6 60.3,106.6 49.4,87.7 46.7,92.4 				"/>
				<path id="XMLID_50_" class="st0" d="M79.3,61.9l-33.5-58H0.9l37,64l-37,64h44.9l33.5-58C81.4,70.2,81.4,65.6,79.3,61.9z"/>

					<radialGradient id="XMLID_64_" cx="60.0178" cy="3206.6692" r="44.623" gradientTransform="matrix(1 0 0 -1 0 3313.1865)" gradientUnits="userSpaceOnUse">
					<stop  offset="0" style="stop-color:#263238;stop-opacity:0.2"/>
					<stop  offset="1" style="stop-color:#263238;stop-opacity:2.000000e-02"/>
				</radialGradient>
				<polygon id="XMLID_49_" class="st6" points="46.7,92.4 49.4,87.7 37.9,67.9 32.4,77.4 				"/>
				<path id="XMLID_48_" class="st0" d="M79.3,61.9l-33.5-58H0.9l37,64l-37,64h44.9l33.5-58C81.4,70.2,81.4,65.6,79.3,61.9z"/>
				<g id="XMLID_45_">
					<g id="XMLID_46_">
						<polygon id="XMLID_47_" class="st7" points="23.9,3.9 0.9,3.9 60.3,106.6 71.8,86.8 71.8,86.7 						"/>
					</g>
				</g>
				<path id="XMLID_44_" class="st0" d="M79.3,61.9l-33.5-58H0.9l37,64l-37,64h44.9l33.5-58C81.4,70.2,81.4,65.6,79.3,61.9z"/>
				<path id="XMLID_43_" class="st1" d="M79.3,73.9c2.1-3.7,2.1-8.3,0-12l-33.5-58H23.9l47.9,82.9L79.3,73.9z"/>
				<path id="XMLID_42_" class="st0" d="M79.3,61.9l-33.5-58H0.9l37,64l-37,64h44.9l33.5-58C81.4,70.2,81.4,65.6,79.3,61.9z"/>
				<polygon id="XMLID_41_" class="st8" points="71.8,86.7 71.5,86.3 60.3,105.6 1.4,3.9 0.9,3.9 60.3,106.6 71.8,86.8 				"/>
				<path id="XMLID_40_" class="st0" d="M79.3,61.9l-33.5-58H0.9l37,64l-37,64h44.9l33.5-58C81.4,70.2,81.4,65.6,79.3,61.9z"/>
				<path id="XMLID_39_" class="st4" d="M45.7,4.9l33.5,58c1,1.7,1.5,3.6,1.6,5.5c0.1-2.2-0.4-4.5-1.6-6.5l-33.5-58H0.9l0.6,1H45.7z
					"/>
				<path id="XMLID_38_" class="st0" d="M79.3,61.9l-33.5-58H0.9l37,64l-37,64h44.9l33.5-58C81.4,70.2,81.4,65.6,79.3,61.9z"/>
				<path id="XMLID_25_" class="st9" d="M71.8,86.7l7.5-12.9c1.2-2,1.7-4.3,1.6-6.5c-0.1,1.9-0.6,3.8-1.6,5.5l-7.7,13.4L71.8,86.7z"
					/>
				<path id="XMLID_24_" class="st0" d="M79.3,61.9l-33.5-58H0.9l37,64l-37,64h44.9l33.5-58C81.4,70.2,81.4,65.6,79.3,61.9z"/>
			</g>
		</g>
	</g>
	<text id="XMLID_5_" transform="matrix(1 0 0 1 123.8956 60.0602)"><tspan x="0" y="0" class="st10" style="font-family:'ProductSans-Regular'; font-size:70px;">GDG DevFest </tspan><tspan x="0" y="66" class="st10" style="font-family:'ProductSans-Regular'; font-size:70px;">Season 2016</tspan></text>
</g>
</svg>
