<!-- Generator: Adobe Illustrator 19.1.0, SVG Export Plug-In  -->
<svg version="1.1"
	 xmlns="http://www.w3.org/2000/svg" xmlns:xlink="http://www.w3.org/1999/xlink" xmlns:a="http://ns.adobe.com/AdobeSVGViewerExtensions/3.0/"
	 x="0px" y="0px" width="839.9px" height="201px" viewBox="0 0 839.9 201" style="enable-background:new 0 0 839.9 201;"
	 xml:space="preserve">
<style type="text/css">
	.st0{fill:#FFFFFF;stroke:#000000;stroke-miterlimit:10;}
	.st1{opacity:0.2;fill:#FFFFFF;stroke:#000000;stroke-miterlimit:10;enable-background:new    ;}
	.st2{fill:#FFFFFF;}
</style>
<defs>
</defs>
<g id="XMLID_40_">
	<g id="XMLID_42_">
		<g id="XMLID_43_">
			<path id="XMLID_64_" class="st0" d="M123.4,91.1L71,0.5H0.9l57.8,100l-57.8,100H71l52.4-90.6C126.7,104.1,126.7,96.9,123.4,91.1z
				"/>
			<path id="XMLID_63_" class="st0" d="M93.3,160.3l-16.6-28.7l-39.9,68.9H71l22.8-39.4L93.3,160.3z"/>
			<path id="XMLID_59_" class="st0" d="M123.4,91.1L71,0.5H0.9l57.8,100l-57.8,100H71l52.4-90.6C126.7,104.1,126.7,96.9,123.4,91.1z
				"/>
			<path id="XMLID_58_" class="st0" d="M58.7,100.5l18,31.1l-39.9,68.9H0.9L58.7,100.5z"/>
			<path id="XMLID_57_" class="st1" d="M71,198.9H37.7l-0.9,1.6H71l22.8-39.4l-0.5-0.8L71,198.9z"/>
			<path id="XMLID_56_" class="st1" d="M1.8,198.9l-0.9,1.6h35.9l0.9-1.6H1.8z"/>
			<path id="XMLID_55_" class="st1" d="M0.9,200.5h0.9l57.4-99.2l-0.5-0.8L0.9,200.5z"/>
			<path id="XMLID_54_" class="st0" d="M93.8,161.1l-17.1-29.5l-4.2,7.2"/>
			<path id="XMLID_52_" class="st0" d="M72.5,138.8l4.2-7.2l-18-31.1l-8.5,14.8"/>
			<path id="XMLID_50_" class="st0" d="M123.4,109.9c3.4-5.8,3.4-13,0-18.8L71,0.5H36.8L111.7,130L123.4,109.9z"/>
			<path id="XMLID_49_" class="st1" d="M111.7,130l-0.4-0.8l-17.5,30.3l-92-159H0.9l92.9,160.6L111.7,130z"/>
			<path id="XMLID_47_" class="st1" d="M0.9,0.5l0.9,1.6H71l52.4,90.6c1.5,2.7,2.3,5.6,2.5,8.6c0.1-3.5-0.7-7-2.5-10.2L71,0.5"/>
			<path id="XMLID_45_" class="st1" d="M111.7,130l11.6-20.1c1.8-3.1,2.6-6.7,2.5-10.2c-0.1,3-0.9,5.9-2.5,8.6l-12.1,20.9L111.7,130
				z"/>
		</g>
	</g>
</g>
<g id="XMLID_6_">
	<path id="XMLID_38_" class="st2" d="M276.4,52.3c0,10.9-3.2,19.7-9.7,26.1c-7.4,7.7-17,11.6-28.8,11.6c-11.3,0-20.9-3.9-28.8-11.8
		c-7.9-7.8-11.9-17.6-11.9-29.1s4-21.3,11.9-29.1s17.5-11.8,28.8-11.8c5.6,0,11,1.1,16.1,3.3c5.1,2.2,9.2,5.1,12.2,8.8l-6.9,6.9
		c-5.2-6.2-12.3-9.3-21.4-9.3c-8.2,0-15.4,2.9-21.4,8.7s-9,13.3-9,22.6s3,16.8,9,22.6c6,5.8,13.1,8.7,21.4,8.7
		c8.8,0,16-2.9,21.9-8.8c3.8-3.8,6-9.1,6.6-15.9h-28.5v-9.4h38C276.2,48.5,276.4,50.4,276.4,52.3L276.4,52.3z"/>
	<path id="XMLID_37_" class="st2" d="M286.3,88.3V10h24c12,0,21.7,3.6,28.9,10.9c7.2,7.3,10.8,16.7,10.8,28.3s-3.6,21-10.8,28.3
		c-7.2,7.3-16.8,10.9-28.9,10.9L286.3,88.3L286.3,88.3z M296.4,78.7h13.9c9,0,16.2-2.6,21.5-7.8c5.3-5.2,7.9-12.4,7.9-21.8
		c0-9.3-2.6-16.5-7.9-21.7s-12.5-7.8-21.5-7.8h-13.9C296.4,19.6,296.4,78.7,296.4,78.7z"/>
	<path id="XMLID_35_" class="st2" d="M435.4,52.3c0,10.9-3.2,19.7-9.7,26.1c-7.4,7.7-17,11.6-28.8,11.6c-11.3,0-20.9-3.9-28.8-11.8
		c-7.9-7.8-11.9-17.6-11.9-29.1s4-21.3,11.9-29.1s17.5-11.8,28.8-11.8c5.6,0,11,1.1,16.1,3.3s9.2,5.1,12.2,8.8l-6.9,6.9
		c-5.2-6.2-12.3-9.3-21.4-9.3c-8.2,0-15.4,2.9-21.4,8.7s-9,13.3-9,22.6s3,16.8,9,22.6c6,5.8,13.1,8.7,21.4,8.7
		c8.8,0,16-2.9,21.9-8.8c3.8-3.8,6-9.1,6.6-15.9h-28.5v-9.4h38C435.2,48.5,435.4,50.4,435.4,52.3L435.4,52.3z"/>
	<path id="XMLID_34_" class="st2" d="M471.7,88.3V10h24c12,0,21.7,3.6,28.9,10.9s10.8,16.7,10.8,28.3s-3.6,21-10.8,28.3
		s-16.8,10.9-28.9,10.9L471.7,88.3L471.7,88.3z M481.8,78.7h13.9c9,0,16.2-2.6,21.5-7.8c5.3-5.2,7.9-12.4,7.9-21.8
		c0-9.3-2.6-16.5-7.9-21.7c-5.3-5.2-12.5-7.8-21.5-7.8h-13.9C481.8,19.6,481.8,78.7,481.8,78.7z"/>
	<path id="XMLID_32_" class="st2" d="M568.3,90.1c-8.1,0-14.7-2.7-19.7-8.1c-5.1-5.4-7.6-12.2-7.6-20.5c0-7.8,2.5-14.5,7.4-20.1
		s11.2-8.4,18.9-8.4c7.9,0,14.3,2.6,19.1,7.8s7.2,12.1,7.2,20.8l-0.1,1.9h-42.3c0.3,5.4,2.1,9.7,5.4,12.8c3.3,3.1,7.2,4.7,11.6,4.7
		c7.2,0,12.1-3.1,14.7-9.2l9,3.7c-1.8,4.2-4.6,7.6-8.6,10.4C579.1,88.7,574.2,90.1,568.3,90.1L568.3,90.1z M582.8,55.1
		c-0.2-3.1-1.6-6-4.2-8.8c-2.6-2.8-6.4-4.2-11.5-4.2c-3.7,0-6.9,1.2-9.7,3.5c-2.7,2.3-4.6,5.5-5.6,9.4L582.8,55.1L582.8,55.1z"/>
	<path id="XMLID_30_" class="st2" d="M614.6,88.3l-21.7-53.6h11l15.8,41.6h0.2l16-41.6h10.7l-21.9,53.6H614.6z"/>
	<path id="XMLID_28_" class="st2" d="M662.5,88.3h-10.1V10h45.7v9.6h-35.7v25.7h32.2v9.4h-32.2L662.5,88.3L662.5,88.3z"/>
	<path id="XMLID_26_" class="st2" d="M728.6,90.1c-8.1,0-14.7-2.7-19.7-8.1c-5.1-5.4-7.6-12.2-7.6-20.5c0-7.8,2.5-14.5,7.4-20.1
		s11.2-8.4,18.9-8.4c7.9,0,14.3,2.6,19.1,7.8s7.2,12.1,7.2,20.8l-0.1,1.9h-42.3c0.3,5.4,2.1,9.7,5.4,12.8c3.3,3.1,7.2,4.7,11.6,4.7
		c7.2,0,12.1-3.1,14.7-9.2l9,3.7c-1.8,4.2-4.6,7.6-8.6,10.4C739.3,88.7,734.4,90.1,728.6,90.1L728.6,90.1z M743,55.1
		c-0.2-3.1-1.6-6-4.2-8.8c-2.6-2.8-6.4-4.2-11.5-4.2c-3.7,0-6.9,1.2-9.7,3.5c-2.7,2.3-4.6,5.5-5.6,9.4L743,55.1L743,55.1z"/>
	<path id="XMLID_25_" class="st2" d="M780.4,90.1c-6,0-10.9-1.5-14.8-4.4c-3.9-2.9-6.8-6.6-8.6-10.9l9-3.7
		c2.8,6.7,7.7,10.1,14.5,10.1c3.1,0,5.7-0.7,7.7-2.1s3-3.2,3-5.5c0-3.5-2.4-5.9-7.3-7.1l-10.8-2.6c-3.4-0.9-6.7-2.5-9.7-5
		c-3.1-2.4-4.6-5.7-4.6-9.9c0-4.7,2.1-8.6,6.3-11.5c4.2-3,9.2-4.4,14.9-4.4c4.7,0,9,1.1,12.7,3.2c3.7,2.2,6.4,5.2,8,9.2l-8.8,3.6
		c-2-4.7-6.1-7.1-12.2-7.1c-3,0-5.5,0.6-7.5,1.9c-2,1.2-3.1,2.9-3.1,5c0,3.1,2.4,5.1,7.1,6.2l10.6,2.5c5,1.2,8.8,3.2,11.2,6
		s3.6,6.1,3.6,9.6c0,4.8-2,8.8-5.9,12C791.7,88.5,786.6,90.1,780.4,90.1L780.4,90.1z"/>
	<path id="XMLID_24_" class="st2" d="M831.8,89.2c-5.6,0-9.9-1.5-12.9-4.5s-4.4-7.2-4.4-12.7V43.9h-9.4v-9.2h9.4V18.3h10.1v16.4
		h13.1v9.2h-13.1v27.3c0,5.8,2.4,8.8,7.2,8.8c1.8,0,3.4-0.3,4.6-0.9l3.5,8.6C837.7,88.7,835,89.2,831.8,89.2L831.8,89.2z"/>
	<path id="XMLID_23_" class="st2" d="M223.1,193.2c-5.7,0-11.2-1.9-16.7-5.6c-5.4-3.7-9-8.9-10.7-15.6l9.2-3.7
		c1.1,4.3,3.3,7.9,6.7,10.9s7.2,4.4,11.4,4.4c4.4,0,8.1-1.1,11.2-3.4c3.1-2.3,4.6-5.4,4.6-9.4c0-4.4-1.6-7.7-4.6-10.1
		c-3.1-2.4-8-4.6-14.7-6.6c-6.9-2.2-12.2-5-15.8-8.5s-5.4-7.9-5.4-13.3c0-5.6,2.2-10.5,6.7-14.7c4.4-4.2,10.2-6.2,17.4-6.2
		c6.6,0,12,1.7,16.2,5s6.9,6.9,8.1,10.9l-9.2,3.8c-0.7-2.5-2.3-4.8-4.9-6.9c-2.6-2.1-5.9-3.2-10-3.2c-3.9,0-7.2,1.1-9.9,3.2
		c-2.7,2.2-4.1,4.8-4.1,8c0,2.9,1.3,5.4,3.8,7.4s6.2,3.8,11.1,5.4c3.9,1.2,7.1,2.4,9.7,3.6c2.6,1.2,5.2,2.7,7.9,4.6
		c2.7,1.9,4.7,4.3,6,7.2s2,6.2,2,10s-0.8,7.2-2.4,10.2c-1.6,3-3.6,5.4-6.2,7.1c-2.6,1.8-5.4,3.1-8.4,4
		C229.3,192.7,226.2,193.2,223.1,193.2L223.1,193.2z"/>
	<path id="XMLID_22_" class="st2" d="M282.3,193.2c-8.1,0-14.7-2.7-19.7-8.1c-5.1-5.4-7.6-12.2-7.6-20.5c0-7.8,2.5-14.5,7.4-20.1
		s11.2-8.4,18.9-8.4c7.9,0,14.3,2.6,19.1,7.8c4.8,5.2,7.2,12.1,7.2,20.8l-0.1,1.9h-42.3c0.3,5.4,2.1,9.7,5.4,12.8s7.2,4.7,11.6,4.7
		c7.2,0,12.1-3.1,14.7-9.2l9,3.7c-1.8,4.2-4.6,7.6-8.6,10.4C293,191.8,288.1,193.2,282.3,193.2L282.3,193.2z M296.7,158.2
		c-0.2-3.1-1.6-6-4.2-8.8s-6.4-4.2-11.5-4.2c-3.7,0-6.9,1.2-9.7,3.5c-2.7,2.3-4.6,5.5-5.6,9.4h31L296.7,158.2z"/>
	<path id="XMLID_21_" class="st2" d="M331.2,193.2c-5.7,0-10.4-1.6-14.3-4.9c-3.8-3.3-5.7-7.6-5.7-13c0-5.8,2.3-10.4,6.8-13.7
		s10.1-5,16.7-5c5.9,0,10.8,1.1,14.5,3.3v-1.5c0-3.9-1.3-7.1-4-9.5s-6-3.6-10-3.6c-2.9,0-5.6,0.7-7.9,2.1c-2.4,1.4-4,3.3-4.9,5.7
		l-9.2-3.9c1.2-3.2,3.7-6.2,7.3-8.9c3.6-2.7,8.5-4.1,14.4-4.1c6.9,0,12.5,2,17.1,6c4.5,4,6.8,9.7,6.8,17v32.4h-9.6v-7.4h-0.4
		C344.8,190.1,338.9,193.2,331.2,193.2L331.2,193.2z M332.9,184c4.2,0,7.9-1.5,11.3-4.6s5.1-6.8,5.1-11c-2.8-2.3-7.1-3.5-12.8-3.5
		c-4.9,0-8.6,1.1-11,3.2c-2.5,2.1-3.7,4.6-3.7,7.4c0,2.6,1.1,4.7,3.4,6.2C327.4,183.2,329.9,184,332.9,184L332.9,184z"/>
	<path id="XMLID_19_" class="st2" d="M387.9,193.2c-6,0-10.9-1.5-14.8-4.4s-6.8-6.6-8.6-10.9l9-3.7c2.8,6.7,7.7,10.1,14.5,10.1
		c3.1,0,5.7-0.7,7.7-2.1c2-1.4,3-3.2,3-5.5c0-3.5-2.4-5.9-7.3-7.1l-10.8-2.6c-3.4-0.9-6.7-2.5-9.7-5c-3.1-2.4-4.6-5.7-4.6-9.9
		c0-4.7,2.1-8.6,6.3-11.5c4.2-3,9.2-4.4,14.9-4.4c4.7,0,9,1.1,12.7,3.2c3.7,2.2,6.4,5.2,8,9.2l-8.8,3.6c-2-4.7-6.1-7.1-12.2-7.1
		c-3,0-5.5,0.6-7.5,1.9c-2,1.2-3.1,2.9-3.1,5c0,3.1,2.4,5.1,7.1,6.2l10.6,2.5c5,1.2,8.7,3.2,11.2,6c2.4,2.8,3.6,6.1,3.6,9.6
		c0,4.8-2,8.8-5.9,12C399.1,191.6,394.1,193.2,387.9,193.2L387.9,193.2z"/>
	<path id="XMLID_17_" class="st2" d="M420.6,144.2c5.2-5.4,11.8-8.1,19.8-8.1s14.6,2.7,19.8,8.1c5.2,5.4,7.8,12.2,7.8,20.4
		s-2.6,15-7.8,20.4c-5.2,5.4-11.8,8.1-19.8,8.1s-14.6-2.7-19.8-8.1c-5.2-5.4-7.8-12.2-7.8-20.4C412.8,156.5,415.4,149.7,420.6,144.2
		z M428.1,178.7c3.5,3.5,7.6,5.3,12.3,5.3c4.7,0,8.8-1.8,12.3-5.3s5.2-8.2,5.2-14.1c0-5.8-1.7-10.5-5.2-14.1
		c-3.5-3.5-7.6-5.3-12.3-5.3c-4.7,0-8.8,1.8-12.3,5.3s-5.2,8.2-5.2,14.1S424.6,175.2,428.1,178.7z"/>
	<path id="XMLID_15_" class="st2" d="M484.7,137.8v7.4h0.4c1.5-2.6,3.8-4.7,6.9-6.5s6.5-2.7,10.1-2.7c6.6,0,11.7,2,15.2,6.1
		s5.2,9.6,5.2,16.4v32.8h-10.1V160c0-9.9-4.4-14.9-13.2-14.9c-4.2,0-7.5,1.7-10.2,5c-2.6,3.3-3.9,7.2-3.9,11.5v29.6H475v-53.6h9.7
		L484.7,137.8z"/>
	<path id="XMLID_14_" class="st2" d="M604.4,191.4h-47.7v-10.1c14.3-14.4,23.4-23.7,27.5-28.1c3.6-4,6-7.1,7.2-9.1
		c1.2-2.1,1.9-4.6,1.9-7.7c0-3.1-1.2-5.9-3.7-8.3c-2.5-2.4-5.8-3.6-10-3.6c-3.8,0-6.9,1.1-9.2,3.3s-3.8,4.6-4.5,7.2l-9.2-3.7
		c1.2-3.9,3.8-7.7,7.8-11.2c3.9-3.5,9-5.2,15.3-5.2c6.9,0,12.6,2.1,17.1,6.3c4.4,4.2,6.7,9.3,6.7,15.2c0,7.3-4,15.1-11.9,23.4
		l-21.9,22h34.7L604.4,191.4L604.4,191.4z"/>
	<path id="XMLID_12_" class="st2" d="M662,181.9c-5.5,7.5-12.8,11.3-21.8,11.3s-16.2-3.8-21.8-11.3c-5.5-7.5-8.3-16.8-8.3-27.9
		c0-11.2,2.8-20.5,8.3-27.9c5.5-7.5,12.8-11.2,21.8-11.2s16.2,3.7,21.8,11.2c5.5,7.5,8.3,16.8,8.3,27.9S667.5,174.4,662,181.9z
		 M640.2,183.6c6,0,10.8-2.8,14.4-8.4c3.6-5.6,5.4-12.6,5.4-21.1s-1.8-15.6-5.4-21.2c-3.6-5.6-8.4-8.4-14.4-8.4
		c-6.1,0-10.9,2.8-14.4,8.4c-3.6,5.6-5.4,12.6-5.4,21.2c0,8.5,1.8,15.5,5.4,21.1C629.4,180.8,634.2,183.6,640.2,183.6z"/>
	<path id="XMLID_11_" class="st2" d="M702.2,191.4h-10.1v-62.3l-14.5,6.3l-3.8-8.5l22-10.3h6.5v74.8H702.2z"/>
	<path id="XMLID_9_" class="st2" d="M740.4,143.6c5.8,0,11.2,2.4,16.1,7.2c4.9,4.8,7.3,10.6,7.3,17.3c0,6.6-2.5,12.5-7.6,17.5
		s-11.1,7.5-18,7.5c-7.4,0-13.6-2.5-18.4-7.6c-4.9-5.1-7.3-10.9-7.3-17.4c0-6.9,2.9-14.7,8.8-23.2l20.3-30.1l8.1,5.6l-17.8,24.7
		l0.2,0.2C733.9,144.2,736.6,143.6,740.4,143.6L740.4,143.6z M738.2,183.4c4.2,0,7.9-1.5,10.9-4.4s4.5-6.5,4.5-10.8
		c0-4.2-1.5-7.8-4.5-10.8s-6.7-4.4-10.9-4.4s-7.9,1.5-10.9,4.4c-3.1,3-4.6,6.5-4.6,10.8s1.5,7.9,4.5,10.8
		C730.2,182,733.9,183.4,738.2,183.4z"/>
</g>
</svg>
